<svg version="1.1" id="Layer_1" xmlns="http://www.w3.org/2000/svg" xmlns:xlink="http://www.w3.org/1999/xlink" x="0px" y="0px"
	 viewBox="0 0 500 500" style="enable-background:new 0 0 500 500;" xml:space="preserve">
<style type="text/css">
	.st0{fill:#094074;}
	.st1{fill:#F58A07;}
</style>
<rect class="st0" width="500" height="500"/>
<g>
	<path class="st1" d="M114.5,382.4c5.1-0.3,9.8-0.8,13.9-1.6c4.2-0.8,7.6-2.4,10.4-5c2.8-2.6,4.9-6.5,6.5-11.8
		c1.5-5.3,2.3-12.6,2.3-22v-178c0-4.2,0-8.4,0.1-12.5c0.1-4.1,0.2-8,0.3-11.7c0.1-3.7,0.3-7.1,0.6-10.1c0.2-3,0.5-5.5,0.8-7.5
		c-2.6,0.2-5.5,0.3-8.8,0.5c-3.3,0.2-6.7,0.3-10,0.5c-3.3,0.2-6.4,0.3-9.3,0.3c-2.9,0.1-5.1,0.1-6.8,0.1V87.9L243.3,87
		c18.6-0.1,35.4,1.5,50.3,5c15,3.5,27.6,8.8,38,15.9c10.3,7.1,18.2,16,23.5,26.6c5.3,10.7,7.6,23.1,6.8,37.3
		c-0.5,6.7-2.1,13.3-5,19.8c-2.9,6.6-7.1,12.7-12.6,18.5c-5.5,5.7-12.3,11-20.4,15.6c-8.1,4.7-17.6,8.5-28.5,11.3v0.5
		c15.4,2.4,28.8,6.3,40,11.7c11.3,5.4,20.6,11.7,28,19c7.4,7.3,12.9,15.5,16.5,24.5c3.6,9,5.4,18.3,5.4,28c0,15.1-2.8,28.4-8.5,39.9
		c-5.7,11.5-13.5,21.1-23.6,28.9c-10.1,7.8-22,13.6-35.7,17.6c-13.8,3.9-28.8,5.9-45.1,5.9h-158V382.4z M212.9,380.1
		c8.2,0,15.9,0,23.3-0.1c7.4-0.1,14.7-0.3,22-0.6c9.4-0.5,17.5-2.2,24.3-5.3c6.8-3.1,12.4-7.3,16.8-12.6c4.4-5.3,7.6-11.5,9.7-18.7
		c2.1-7.2,3.2-15.1,3.2-23.7c0-10.6-1.7-19.5-5.1-26.6c-3.4-7.2-7.9-13-13.6-17.3c-5.7-4.4-12.1-7.5-19.3-9.3
		c-7.2-1.8-14.5-2.7-21.9-2.7c-7.7,0-14.4,0-20.1,0s-11.5,0.2-17.6,0.5v75.5c0,4.2,0,8.4-0.1,12.4c-0.1,4-0.2,7.8-0.3,11.4
		c-0.2,3.6-0.3,6.9-0.6,9.9C213.5,375.7,213.2,378.2,212.9,380.1z M239,230.1c9.8-0.1,18.1-1.9,24.7-5.2c6.6-3.3,12-7.8,16.1-13.5
		c4.1-5.7,7-12.2,8.7-19.7c1.7-7.5,2.6-15.5,2.6-23.9c0-9.2-1.5-16.9-4.4-23.1c-2.9-6.2-6.7-11.2-11.3-15c-4.6-3.8-9.9-6.4-15.8-7.9
		c-5.9-1.5-11.8-2.2-17.7-2c-3.8,0.2-7.3,0.6-10.7,1.4c-3.3,0.8-6.2,2.4-8.6,5c-2.4,2.6-4.3,6.4-5.8,11.6
		c-1.4,5.1-2.2,12.2-2.2,21.1v72.1L239,230.1z"/>
</g>
</svg>
